<svg width="868" height="619" viewBox="0 0 868 619" fill="none" xmlns="http://www.w3.org/2000/svg">
<path d="M765.621 179.639C748.25 179.639 734.235 193.139 734.235 209.867C734.235 210.872 734.31 211.949 734.386 212.882C728.421 223.222 723.576 234.061 719.922 245.262C736.248 242.606 753.694 240.525 772.332 239.304C786.347 236.433 796.856 224.299 796.856 209.867C796.856 193.139 782.841 179.639 765.621 179.639ZM737.741 149.125C737.741 132.396 723.723 118.898 706.356 118.898C689.06 118.898 675.045 132.396 675.045 149.125C675.045 153.146 675.864 157.023 677.353 160.541C659.24 204.337 633.819 245.19 601.687 281.306C621.369 272.187 644.478 263.214 671.614 255.817C688.016 231.333 701.88 205.413 713.361 178.562C727.301 175.475 737.741 163.485 737.741 149.125ZM639.184 74.3832C639.184 57.726 625.169 44.2278 607.802 44.2278C590.503 44.2278 576.488 57.726 576.488 74.3832C576.488 77.7575 577.088 80.9883 578.128 84.0042C574.848 88.4556 570.972 92.4763 566.5 96.066C558.45 102.456 549.205 106.908 539.288 109.062C542.569 97.5738 545.253 85.8708 547.787 74.0961C558.748 69.4289 566.425 58.803 566.425 46.5255C566.425 29.8683 552.41 16.3701 535.039 16.3701C517.744 16.3701 503.729 29.8683 503.729 46.5255C503.729 52.7717 505.667 58.4438 509.022 63.2544C496.795 123.565 473.463 180.933 439.69 233.415V52.9153C446.251 47.3868 450.429 39.2736 450.429 30.2272C450.429 13.4982 436.41 0 419.043 0C401.748 0 387.733 13.4982 387.733 30.2272C387.733 39.7046 392.28 48.1768 399.361 53.7052V309.523C362.757 285.326 323.992 265.296 283.512 249.644C283.361 234.204 281.05 219.199 276.801 204.767C328.389 174.47 359.028 119.329 357.241 61.6028C361.117 56.5771 363.428 50.4023 363.428 43.6536C363.428 26.9246 349.413 13.4264 332.118 13.4264C314.747 13.4264 300.732 26.9246 300.732 43.6536C300.732 55.1412 307.368 65.0493 317.058 70.1471C315.867 109.277 295.216 145.966 261.443 168.223C249.144 146.397 232.071 127.37 211.571 112.293C210.824 96.2096 197.183 83.4296 180.336 83.4296C162.965 83.4296 148.95 96.9277 148.95 113.657C148.95 130.314 162.965 143.812 180.336 143.812C182.719 143.812 184.958 143.596 187.119 143.094C217.162 165.064 237.587 198.235 242.21 235.356C198.076 221.858 152.23 213.313 105.114 209.796C99.598 201.035 89.6816 195.077 78.2758 195.077C60.9087 195.077 46.8901 208.575 46.8901 225.232C46.8901 241.96 60.9087 255.458 78.2758 255.458C85.9562 255.458 93.0373 252.731 98.4782 248.277C109.439 248.998 120.324 250.003 131.059 251.295C113.093 270.966 89.312 284.321 63.4425 289.992C57.7001 283.46 49.1296 279.296 39.5111 279.296C22.1404 279.296 8.12548 292.795 8.12548 309.451C8.12548 326.107 22.1404 339.677 39.5111 339.677C48.7564 339.677 57.029 335.73 62.7714 329.625C107.946 322.303 149.471 297.388 175.713 258.545C233.115 270.177 287.984 290.422 338.976 318.714C316.463 324.169 293.127 327.041 269.422 327.041V365.812C308.635 365.812 346.804 359.133 383.182 345.994C388.626 349.73 393.992 353.463 399.286 357.339V456.922C418.745 434.165 437.828 410.973 458.626 388.502C452.367 391.517 446.029 394.388 439.543 397.044V301.48C476.966 254.812 505.965 203.619 526.095 149.412C550.249 149.125 573.359 141.012 592.219 125.934C600.122 119.544 606.98 112.221 612.497 104.251C627.707 101.882 639.184 89.4609 639.184 74.3832ZM559.419 235.356C559.419 219.988 546.596 207.642 530.642 207.642C514.689 207.642 501.866 219.988 501.866 235.356C501.866 242.104 504.324 248.277 508.502 253.09C509.245 279.512 513.423 305.503 520.877 330.63C531.759 322.16 543.391 313.901 555.913 306.149C552.036 289.991 549.725 273.55 548.907 256.822C555.317 251.726 559.419 243.97 559.419 235.356ZM300.283 405.733C284.33 405.733 271.435 418.082 271.435 433.447C271.435 448.811 284.33 461.161 300.283 461.161C304.759 461.161 309.008 460.156 312.809 458.362C332.566 467.478 351.129 478.679 368.126 491.962C377.145 482.268 385.866 472.506 394.44 462.525C373.567 446.155 350.68 432.514 326.228 421.671C321.681 412.265 311.765 405.733 300.283 405.733ZM224.394 483.919C234.16 477.1 242.135 468.052 247.802 457.353C256.896 439.764 258.461 419.877 251.976 401.279L213.807 413.413C216.789 422.246 216.043 431.652 211.722 439.979C209.037 445.151 205.085 449.529 200.387 452.759C176.46 411.834 172.135 360.86 193.68 314.763L156.925 298.896C123.974 369.832 139.558 449.96 189.804 504.814C141.869 491.029 97.7353 465.252 62.5489 429.065C62.6206 428.275 62.696 427.486 62.696 426.696C62.696 426.624 62.696 426.624 62.696 426.624C62.696 412.265 52.2593 400.274 38.3196 397.259C36.0837 396.828 33.7724 396.541 31.3857 396.541C30.492 396.541 29.5948 396.613 28.7011 396.685C12.6727 397.977 0 410.901 0 426.696C0 443.424 14.0904 456.922 31.3857 456.922C31.5364 456.922 31.8343 456.922 31.9815 456.851C32.728 456.851 33.5463 456.779 34.2174 456.707C72.8349 496.34 121.738 525.705 177.278 541.791C208.441 550.835 240.272 555.361 271.88 555.361C280.605 555.361 289.402 554.999 298.123 554.281C320.041 538.773 339.123 521.757 356.792 503.809C328.837 512.207 300.136 516.374 271.733 516.374C253.393 508.188 237.587 497.058 224.394 483.919Z" fill="#C89211" fill-opacity="0.05"/>
<path d="M751.714 435.74C774.824 435.74 797.786 432.008 819.629 424.826C824.474 427.769 830.213 429.567 836.4 429.567C853.695 429.567 867.714 416.069 867.714 399.409C867.714 382.681 853.695 369.183 836.4 369.183C823.354 369.183 812.174 376.867 807.401 387.853C790.928 393.38 773.632 396.538 756.039 396.969C770.352 379.666 783.473 361.359 795.249 342.115C797.413 338.597 799.498 334.937 801.587 331.276C802.258 331.204 802.929 331.132 803.6 331.061C818.362 328.545 829.542 316.195 829.542 301.333C829.542 284.676 815.455 271.178 798.159 271.178C794.581 271.178 791.003 271.824 787.722 272.973C786.154 273.475 784.514 274.121 783.025 274.983C773.406 280.083 766.774 289.992 766.774 301.405C766.774 303.059 766.921 304.71 767.219 306.289C767.369 307.223 767.667 308.227 767.89 309.161C763.867 316.339 759.689 323.448 755.217 330.411C747.985 300.256 751.416 268.307 765.133 240.162H765.579C767.89 240.162 770.126 239.947 772.29 239.444C753.728 240.665 736.282 242.746 719.88 245.402C706.536 285.969 708.625 330.411 726.667 369.972C691.925 412.979 648.761 449.885 598.737 478.245C579.059 480.327 559.75 483.628 540.589 488.154C543.869 483.485 547.896 479.25 552.518 475.589C565.938 464.818 582.935 459.722 600.306 461.301L603.956 422.745C575.926 420.233 548.416 428.419 526.724 445.865C508.237 460.655 495.859 480.542 491.014 502.801C473.421 509.046 456.201 516.299 439.501 524.554V439.042C490.418 419.73 537.459 392.447 579.131 357.838C591.581 347.573 603.285 336.731 614.468 325.458C632.061 329.478 649.88 331.563 667.994 331.563C673.212 331.563 678.506 331.419 683.875 331.061L681.115 292.36C669.038 293.15 656.961 292.863 645.107 291.427C654.503 279.939 663.3 268.092 671.425 255.814C644.289 263.139 621.179 272.183 601.497 281.303C588.749 295.734 574.957 309.448 560.048 322.3C558.408 316.913 556.915 311.601 555.648 306.146C543.198 313.898 531.494 322.084 520.612 330.626C522.475 336.659 524.413 342.689 526.574 348.578C505.104 363.871 482.368 377.226 458.437 388.499C437.638 410.969 418.552 434.161 399.096 456.923V466.398C397.532 465.106 395.891 463.814 394.251 462.593C385.677 472.503 376.956 482.336 367.933 492.03C370.395 493.825 372.707 495.763 375.018 497.701C368.83 500.001 362.639 502.083 356.452 503.949C338.787 521.826 319.701 538.913 297.783 554.425C332.373 551.765 366.519 543.582 399.096 530.156V630.314H239.86V755.745C217.494 763.358 201.39 783.818 201.39 807.872C201.39 838.385 227.112 863.156 258.867 863.156C290.551 863.156 316.273 838.385 316.273 807.872C316.273 784.608 301.214 764.65 280.114 756.535V669.014H399.394V794.661C377.254 802.341 361.373 822.734 361.373 846.715C361.373 877.229 387.095 902 418.778 902C450.534 902 476.256 877.229 476.256 846.715C476.256 823.308 461.046 803.346 439.724 795.235V669.014H559.004V756.535C537.832 764.721 522.773 784.608 522.773 807.872C522.773 838.385 548.491 863.156 580.25 863.156C611.934 863.156 637.653 838.385 637.653 807.872C637.653 783.818 621.552 763.286 599.261 755.745V630.314H439.652V568.784C547.749 508.471 677.462 499.068 792.195 538.411C795.995 550.976 807.997 560.095 822.162 560.095C839.533 560.095 853.548 546.597 853.548 529.869C853.548 513.212 839.533 499.714 822.162 499.714C817.393 499.714 812.846 500.719 808.819 502.585C765.654 487.293 720.178 478.245 673.438 476.091C690.734 463.024 706.985 448.88 722.342 433.874C732.032 435.023 741.873 435.74 751.714 435.74ZM295.396 807.728C295.396 827.184 278.998 842.979 258.796 842.979C238.59 842.979 222.192 827.112 222.192 807.728C222.192 788.269 238.59 772.474 258.796 772.474C278.998 772.474 295.396 788.34 295.396 807.728ZM455.307 846.644C455.307 866.099 438.905 881.895 418.703 881.895C398.501 881.895 382.099 866.028 382.099 846.644C382.099 828.835 395.816 814.188 413.56 811.748H423.771C441.59 814.117 455.307 828.835 455.307 846.644ZM616.704 807.728C616.704 827.184 600.306 842.979 580.1 842.979C559.897 842.979 543.499 827.112 543.499 807.728C543.499 788.269 559.897 772.474 580.1 772.474C600.306 772.474 616.704 788.34 616.704 807.728Z" fill="#00783F" fill-opacity="0.05"/>
</svg>
