<svg width="138" height="45" viewBox="0 0 138 45" fill="none" xmlns="http://www.w3.org/2000/svg">
<rect width="138" height="45" rx="5" fill="url(#paint0_linear_4615_20639)"/>
<path d="M56.1882 20.9922H53.3885C53.3374 20.63 53.233 20.3082 53.0753 20.027C52.9176 19.7415 52.7152 19.4986 52.468 19.2983C52.2209 19.098 51.9354 18.9446 51.6115 18.8381C51.2919 18.7315 50.9446 18.6783 50.5696 18.6783C49.892 18.6783 49.3018 18.8466 48.799 19.1832C48.2962 19.5156 47.9063 20.0014 47.6293 20.6406C47.3523 21.2756 47.2138 22.0469 47.2138 22.9545C47.2138 23.8878 47.3523 24.6719 47.6293 25.3068C47.9105 25.9418 48.3026 26.4212 48.8054 26.745C49.3082 27.0689 49.8899 27.2308 50.5504 27.2308C50.9212 27.2308 51.2642 27.1818 51.5795 27.0838C51.8991 26.9858 52.1825 26.843 52.4297 26.6555C52.6768 26.4638 52.8814 26.2315 53.0433 25.9588C53.2095 25.6861 53.3246 25.375 53.3885 25.0256L56.1882 25.0384C56.1158 25.6392 55.9347 26.2188 55.6449 26.777C55.3594 27.331 54.9737 27.8274 54.4879 28.2663C54.0064 28.701 53.4311 29.0462 52.7621 29.3018C52.0973 29.5533 51.3452 29.679 50.5057 29.679C49.3381 29.679 48.294 29.4148 47.3736 28.8864C46.4574 28.358 45.733 27.593 45.2003 26.5916C44.6719 25.5902 44.4077 24.3778 44.4077 22.9545C44.4077 21.527 44.6761 20.3125 45.2131 19.3111C45.75 18.3097 46.4787 17.5469 47.3991 17.0227C48.3196 16.4943 49.3551 16.2301 50.5057 16.2301C51.2642 16.2301 51.9673 16.3366 52.6151 16.5497C53.267 16.7628 53.8445 17.0739 54.3473 17.483C54.8501 17.8878 55.2592 18.3842 55.5746 18.9723C55.8942 19.5604 56.0987 20.2337 56.1882 20.9922ZM60.8448 16.4091V29.5H58.1218V16.4091H60.8448ZM65.8258 29.6854C65.1994 29.6854 64.6412 29.5767 64.1511 29.3594C63.661 29.1378 63.2733 28.8118 62.9877 28.3814C62.7065 27.9467 62.5659 27.4055 62.5659 26.7578C62.5659 26.2124 62.666 25.7543 62.8663 25.3835C63.0666 25.0128 63.3393 24.7145 63.6845 24.4886C64.0297 24.2628 64.4217 24.0923 64.8606 23.9773C65.3038 23.8622 65.7683 23.7812 66.2541 23.7344C66.8251 23.6747 67.2853 23.6193 67.6348 23.5682C67.9842 23.5128 68.2377 23.4318 68.3954 23.3253C68.5531 23.2187 68.6319 23.0611 68.6319 22.8523V22.8139C68.6319 22.4091 68.5041 22.0959 68.2484 21.8743C67.997 21.6527 67.639 21.5419 67.1745 21.5419C66.6845 21.5419 66.2946 21.6506 66.0048 21.8679C65.715 22.081 65.5233 22.3494 65.4295 22.6733L62.911 22.4688C63.0389 21.8722 63.2903 21.3565 63.6653 20.9219C64.0403 20.483 64.524 20.1463 65.1163 19.9119C65.7129 19.6733 66.4032 19.554 67.1873 19.554C67.7328 19.554 68.2548 19.6179 68.7534 19.7457C69.2562 19.8736 69.7015 20.0717 70.0893 20.3402C70.4814 20.6087 70.7903 20.9538 71.0162 21.3757C71.242 21.7933 71.3549 22.294 71.3549 22.8778V29.5H68.7726V28.1385H68.6958C68.5382 28.4453 68.3272 28.7159 68.063 28.9503C67.7988 29.1804 67.4814 29.3615 67.1106 29.4936C66.7399 29.6214 66.3116 29.6854 65.8258 29.6854ZM66.6056 27.8061C67.0062 27.8061 67.3599 27.7273 67.6667 27.5696C67.9735 27.4077 68.2143 27.1903 68.389 26.9176C68.5637 26.6449 68.6511 26.3359 68.6511 25.9908V24.9489C68.5659 25.0043 68.4487 25.0554 68.2995 25.1023C68.1547 25.1449 67.9906 25.1854 67.8074 25.2237C67.6241 25.2578 67.4409 25.2898 67.2576 25.3196C67.0744 25.3452 66.9082 25.3686 66.7591 25.3899C66.4395 25.4368 66.1603 25.5114 65.9217 25.6136C65.6831 25.7159 65.4977 25.8544 65.3656 26.0291C65.2335 26.1996 65.1674 26.4126 65.1674 26.6683C65.1674 27.0391 65.3017 27.3224 65.5701 27.5185C65.8429 27.7102 66.188 27.8061 66.6056 27.8061ZM73.4675 29.5V19.6818H76.1905V29.5H73.4675ZM74.8354 18.4162C74.4306 18.4162 74.0833 18.282 73.7935 18.0135C73.508 17.7408 73.3652 17.4148 73.3652 17.0355C73.3652 16.6605 73.508 16.3388 73.7935 16.0703C74.0833 15.7976 74.4306 15.6612 74.8354 15.6612C75.2402 15.6612 75.5854 15.7976 75.8709 16.0703C76.1607 16.3388 76.3056 16.6605 76.3056 17.0355C76.3056 17.4148 76.1607 17.7408 75.8709 18.0135C75.5854 18.282 75.2402 18.4162 74.8354 18.4162ZM78.3718 29.5V19.6818H80.967V21.4141H81.082C81.2866 20.8388 81.6275 20.3849 82.1048 20.0526C82.582 19.7202 83.1531 19.554 83.8178 19.554C84.4911 19.554 85.0643 19.7223 85.5373 20.0589C86.0103 20.3913 86.3256 20.843 86.4833 21.4141H86.5856C86.7859 20.8516 87.1481 20.402 87.6722 20.0653C88.2006 19.7244 88.8249 19.554 89.5451 19.554C90.4613 19.554 91.2049 19.8459 91.7759 20.4297C92.3512 21.0092 92.6389 21.8317 92.6389 22.897V29.5H89.9222V23.4339C89.9222 22.8885 89.7773 22.4794 89.4876 22.2067C89.1978 21.9339 88.8356 21.7976 88.4009 21.7976C87.9066 21.7976 87.521 21.9553 87.244 22.2706C86.967 22.5817 86.8285 22.9929 86.8285 23.5043V29.5H84.1886V23.3764C84.1886 22.8949 84.0501 22.5114 83.7731 22.2259C83.5004 21.9403 83.1403 21.7976 82.6928 21.7976C82.3903 21.7976 82.1175 21.8743 81.8746 22.0277C81.636 22.1768 81.4464 22.3878 81.3058 22.6605C81.1651 22.929 81.0948 23.2443 81.0948 23.6065V29.5H78.3718Z" fill="white"/>
<defs>
<linearGradient id="paint0_linear_4615_20639" x1="69" y1="0" x2="69" y2="45" gradientUnits="userSpaceOnUse">
<stop stop-color="#00783F"/>
<stop offset="1" stop-color="#BF9000"/>
</linearGradient>
</defs>
</svg>
