<svg width="243" height="42" viewBox="0 0 243 42" fill="none" xmlns="http://www.w3.org/2000/svg">
<path d="M8.473 25.013C8.64 24.781 8.79801 24.561 8.98701 24.346C6.71101 24.917 5.14301 26.112 5.14301 27.495C5.14301 27.547 5.14534 27.5983 5.15001 27.649C5.37267 27.5617 5.60901 27.4543 5.85901 27.327C7.36301 26.559 7.953 25.737 8.473 25.013ZM10.844 27.556C11.299 26.922 11.693 26.375 12.804 25.808C13.915 25.24 14.572 25.25 15.332 25.262C15.842 25.271 16.392 25.279 17.062 25.13C16.244 24.673 14.902 24.328 13.714 24.143L11.905 25.461L11.082 24.659C10.225 25.259 9.78601 25.869 9.38701 26.424C8.93201 27.058 8.53901 27.604 7.42701 28.172C6.64801 28.57 6.09301 28.684 5.56701 28.712C5.98201 29.283 6.67901 29.785 7.57101 30.17C7.77901 30.0867 7.99834 29.9863 8.22901 29.869C9.73401 29.101 10.323 28.28 10.845 27.556M17.732 25.914C16.863 25.9 15.878 25.884 14.374 26.653C12.87 27.421 12.28 28.243 11.76 28.967C11.304 29.6 10.911 30.147 9.80001 30.715L9.65201 30.789C10.5967 30.9616 11.5575 31.029 12.517 30.99C12.795 30.684 13.012 30.383 13.217 30.099C13.671 29.465 14.065 28.917 15.177 28.35C16.287 27.782 16.944 27.793 17.704 27.805C18.054 27.811 18.424 27.817 18.837 27.772C18.8517 27.6807 18.859 27.5887 18.859 27.496C18.859 26.928 18.595 26.393 18.126 25.918C17.9967 25.918 17.8653 25.9167 17.732 25.914ZM14.75 30.706C16.547 30.304 17.94 29.519 18.539 28.554C18.025 28.651 17.441 28.839 16.745 29.194C15.775 29.69 15.185 30.207 14.75 30.706Z" fill="#525050"/>
<path d="M12 11L4.28601 19L12 26.429L19.714 18.999L12 11Z" fill="url(#paint0_linear_4687_20645)"/>
<path d="M12 19H4.28601L12 11V19Z" fill="url(#paint1_linear_4687_20645)"/>
<path d="M46.0043 14.9091V28H44.1889L37.5348 18.3991H37.4134V28H35.4382V14.9091H37.2663L43.9268 24.5227H44.0483V14.9091H46.0043ZM48.8855 28V14.9091H57.0034V16.6094H50.8606V20.598H56.4217V22.2919H50.8606V28H48.8855ZM58.7868 16.6094V14.9091H68.9181V16.6094H64.8336V28H62.8649V16.6094H58.7868ZM86.7935 19.1662H84.7992C84.7225 18.7401 84.5797 18.3651 84.3709 18.0412C84.1621 17.7173 83.9064 17.4425 83.6039 17.2166C83.3013 16.9908 82.9625 16.8203 82.5875 16.7053C82.2168 16.5902 81.8226 16.5327 81.405 16.5327C80.6507 16.5327 79.9753 16.7223 79.3787 17.1016C78.7864 17.4808 78.3176 18.0369 77.9725 18.7699C77.6316 19.5028 77.4611 20.3977 77.4611 21.4545C77.4611 22.5199 77.6316 23.419 77.9725 24.152C78.3176 24.8849 78.7885 25.4389 79.3851 25.8139C79.9817 26.1889 80.6529 26.3764 81.3986 26.3764C81.812 26.3764 82.204 26.321 82.5748 26.2102C82.9498 26.0952 83.2885 25.9268 83.5911 25.7053C83.8936 25.4837 84.1493 25.2131 84.3581 24.8935C84.5712 24.5696 84.7182 24.1989 84.7992 23.7812L86.7935 23.7876C86.687 24.4311 86.4803 25.0234 86.1735 25.5646C85.8709 26.1016 85.481 26.5661 85.0037 26.9581C84.5307 27.3459 83.9895 27.6463 83.3801 27.8594C82.7708 28.0724 82.106 28.179 81.3858 28.179C80.2523 28.179 79.2424 27.9105 78.356 27.3736C77.4696 26.8324 76.7708 26.0589 76.2594 25.0533C75.7523 24.0476 75.4988 22.848 75.4988 21.4545C75.4988 20.0568 75.7544 18.8572 76.2658 17.8558C76.7772 16.8501 77.476 16.0788 78.3624 15.5419C79.2488 15.0007 80.2566 14.7301 81.3858 14.7301C82.0804 14.7301 82.7282 14.8303 83.329 15.0305C83.9341 15.2266 84.4775 15.5163 84.959 15.8999C85.4405 16.2791 85.839 16.7436 86.1543 17.2933C86.4696 17.8388 86.6827 18.4631 86.7935 19.1662ZM90.9148 14.9091V28H89.0036V14.9091H90.9148ZM96.3432 28.2173C95.7211 28.2173 95.1586 28.1023 94.6557 27.8722C94.1529 27.6378 93.7544 27.299 93.4604 26.8558C93.1706 26.4126 93.0257 25.8693 93.0257 25.2259C93.0257 24.6719 93.1323 24.2159 93.3453 23.858C93.5584 23.5 93.8461 23.2166 94.2083 23.0078C94.5705 22.799 94.9753 22.6413 95.4228 22.5348C95.8702 22.4283 96.3262 22.3473 96.7907 22.2919C97.3787 22.2237 97.856 22.1683 98.2225 22.1257C98.589 22.0788 98.8553 22.0043 99.0215 21.902C99.1877 21.7997 99.2708 21.6335 99.2708 21.4034V21.3587C99.2708 20.8004 99.1131 20.3679 98.7978 20.0611C98.4867 19.7543 98.0222 19.6009 97.4043 19.6009C96.7608 19.6009 96.2537 19.7436 95.883 20.0291C95.5165 20.3104 95.263 20.6236 95.1223 20.9688L93.3262 20.5597C93.5392 19.9631 93.8503 19.4815 94.2594 19.1151C94.6728 18.7443 95.1479 18.4759 95.6848 18.3097C96.2218 18.1392 96.7864 18.054 97.3787 18.054C97.7708 18.054 98.1863 18.1009 98.6252 18.1946C99.0684 18.2841 99.4817 18.4503 99.8652 18.6932C100.253 18.9361 100.57 19.2834 100.818 19.7351C101.065 20.1825 101.188 20.7642 101.188 21.4801V28H99.3219V26.6577H99.2452C99.1216 26.9048 98.9363 27.1477 98.6891 27.3864C98.4419 27.625 98.1245 27.8232 97.7367 27.9808C97.3489 28.1385 96.8844 28.2173 96.3432 28.2173ZM96.7587 26.6832C97.2871 26.6832 97.7388 26.5788 98.1138 26.37C98.4931 26.1612 98.7807 25.8885 98.9767 25.5518C99.177 25.2109 99.2772 24.8466 99.2772 24.4588V23.1932C99.209 23.2614 99.0769 23.3253 98.8809 23.3849C98.6891 23.4403 98.4696 23.4893 98.2225 23.532C97.9753 23.5703 97.7346 23.6065 97.5002 23.6406C97.2658 23.6705 97.0698 23.696 96.9121 23.7173C96.5414 23.7642 96.2026 23.843 95.8958 23.9538C95.5932 24.0646 95.3503 24.2244 95.1671 24.4332C94.9881 24.6378 94.8986 24.9105 94.8986 25.2514C94.8986 25.7244 95.0733 26.0824 95.4228 26.3253C95.7722 26.5639 96.2175 26.6832 96.7587 26.6832ZM103.734 28V18.1818H105.645V28H103.734ZM104.699 16.6669C104.367 16.6669 104.081 16.5561 103.843 16.3345C103.608 16.1087 103.491 15.8402 103.491 15.5291C103.491 15.2138 103.608 14.9453 103.843 14.7237C104.081 14.4979 104.367 14.3849 104.699 14.3849C105.032 14.3849 105.315 14.4979 105.549 14.7237C105.788 14.9453 105.907 15.2138 105.907 15.5291C105.907 15.8402 105.788 16.1087 105.549 16.3345C105.315 16.5561 105.032 16.6669 104.699 16.6669ZM108.216 28V18.1818H110.051V19.7798H110.172C110.377 19.2386 110.711 18.8168 111.176 18.5142C111.64 18.2074 112.197 18.054 112.844 18.054C113.501 18.054 114.05 18.2074 114.493 18.5142C114.941 18.821 115.271 19.2429 115.484 19.7798H115.586C115.821 19.2557 116.194 18.8381 116.705 18.527C117.216 18.2116 117.826 18.054 118.533 18.054C119.424 18.054 120.15 18.3331 120.713 18.8913C121.28 19.4496 121.563 20.2912 121.563 21.4162V28H119.652V21.5952C119.652 20.9304 119.471 20.4489 119.108 20.1506C118.746 19.8523 118.314 19.7031 117.811 19.7031C117.189 19.7031 116.705 19.8949 116.36 20.2784C116.015 20.6577 115.842 21.1456 115.842 21.7422V28H113.937V21.4737C113.937 20.9411 113.771 20.5128 113.439 20.1889C113.106 19.8651 112.674 19.7031 112.141 19.7031C111.779 19.7031 111.444 19.799 111.138 19.9908C110.835 20.1783 110.59 20.4403 110.403 20.777C110.219 21.1136 110.128 21.5036 110.128 21.9467V28H108.216ZM131.482 20.5788L129.75 20.8857C129.677 20.6641 129.562 20.4531 129.404 20.2528C129.251 20.0526 129.042 19.8885 128.778 19.7607C128.514 19.6328 128.184 19.5689 127.787 19.5689C127.246 19.5689 126.794 19.6903 126.432 19.9332C126.07 20.1719 125.889 20.4808 125.889 20.8601C125.889 21.1882 126.01 21.4524 126.253 21.6527C126.496 21.853 126.888 22.017 127.429 22.1449L128.989 22.5028C129.892 22.7116 130.566 23.0334 131.009 23.468C131.452 23.9027 131.674 24.4673 131.674 25.1619C131.674 25.75 131.503 26.2741 131.162 26.7344C130.826 27.1903 130.355 27.5483 129.75 27.8082C129.149 28.0682 128.452 28.1982 127.659 28.1982C126.56 28.1982 125.663 27.9638 124.968 27.495C124.274 27.022 123.848 26.3509 123.69 25.4815L125.537 25.2003C125.652 25.6818 125.889 26.0462 126.247 26.2933C126.605 26.5362 127.071 26.6577 127.647 26.6577C128.273 26.6577 128.774 26.5277 129.149 26.2678C129.524 26.0036 129.711 25.6818 129.711 25.3026C129.711 24.9957 129.596 24.7379 129.366 24.5291C129.14 24.3203 128.793 24.1626 128.324 24.0561L126.662 23.6918C125.746 23.483 125.069 23.1506 124.63 22.6946C124.195 22.2386 123.978 21.6612 123.978 20.9624C123.978 20.3828 124.14 19.8757 124.463 19.4411C124.787 19.0064 125.235 18.6676 125.806 18.4247C126.377 18.1776 127.031 18.054 127.768 18.054C128.829 18.054 129.664 18.2841 130.274 18.7443C130.883 19.2003 131.286 19.8118 131.482 20.5788Z" fill="#807373"/>
<path d="M228 18.5L233 23.5L238 18.5H228Z" fill="#807373"/>
<defs>
<linearGradient id="paint0_linear_4687_20645" x1="15.718" y1="16.291" x2="6.60001" y2="23.178" gradientUnits="userSpaceOnUse">
<stop offset="0.09" stop-color="#00783F"/>
<stop offset="0.5" stop-color="#BF9000"/>
<stop offset="1" stop-color="#06663A"/>
</linearGradient>
<linearGradient id="paint1_linear_4687_20645" x1="13.735" y1="13.168" x2="6.39301" y2="20.355" gradientUnits="userSpaceOnUse">
<stop stop-color="#BF9000"/>
<stop offset="0.07" stop-color="#BF9000" stop-opacity="0.82"/>
<stop offset="0.19" stop-color="#BF9000" stop-opacity="0.53"/>
<stop offset="0.3" stop-color="#BF9000" stop-opacity="0.3"/>
<stop offset="0.4" stop-color="#BF9000" stop-opacity="0.14"/>
<stop offset="0.49" stop-color="#BF9000" stop-opacity="0.04"/>
<stop offset="0.55" stop-color="#BF9000" stop-opacity="0"/>
</linearGradient>
</defs>
</svg>
