<svg width="24" height="24" viewBox="0 0 24 24" fill="none" xmlns="http://www.w3.org/2000/svg">
<path d="M8.473 16.013C8.64 15.781 8.79801 15.561 8.98701 15.346C6.71101 15.917 5.14301 17.112 5.14301 18.495C5.14301 18.547 5.14534 18.5983 5.15001 18.649C5.37267 18.5617 5.60901 18.4543 5.85901 18.327C7.36301 17.559 7.953 16.737 8.473 16.013ZM10.844 18.556C11.299 17.922 11.693 17.375 12.804 16.808C13.915 16.24 14.572 16.25 15.332 16.262C15.842 16.271 16.392 16.279 17.062 16.13C16.244 15.673 14.902 15.328 13.714 15.143L11.905 16.461L11.082 15.659C10.225 16.259 9.78601 16.869 9.38701 17.424C8.93201 18.058 8.53901 18.604 7.42701 19.172C6.64801 19.57 6.09301 19.684 5.56701 19.712C5.98201 20.283 6.67901 20.785 7.57101 21.17C7.77901 21.0867 7.99834 20.9863 8.22901 20.869C9.73401 20.101 10.323 19.28 10.845 18.556M17.732 16.914C16.863 16.9 15.878 16.884 14.374 17.653C12.87 18.421 12.28 19.243 11.76 19.967C11.304 20.6 10.911 21.147 9.80001 21.715L9.65201 21.789C10.5967 21.9616 11.5575 22.029 12.517 21.99C12.795 21.684 13.012 21.383 13.217 21.099C13.671 20.465 14.065 19.917 15.177 19.35C16.287 18.782 16.944 18.793 17.704 18.805C18.054 18.811 18.424 18.817 18.837 18.772C18.8517 18.6807 18.859 18.5887 18.859 18.496C18.859 17.928 18.595 17.393 18.126 16.918C17.9967 16.918 17.8653 16.9167 17.732 16.914ZM14.75 21.706C16.547 21.304 17.94 20.519 18.539 19.554C18.025 19.651 17.441 19.839 16.745 20.194C15.775 20.69 15.185 21.207 14.75 21.706Z" fill="#525050"/>
<path d="M12 2L4.28601 10L12 17.429L19.714 9.999L12 2Z" fill="url(#paint0_linear_4687_20665)"/>
<path d="M12 10H4.28601L12 2V10Z" fill="url(#paint1_linear_4687_20665)"/>
<defs>
<linearGradient id="paint0_linear_4687_20665" x1="15.718" y1="7.291" x2="6.60001" y2="14.178" gradientUnits="userSpaceOnUse">
<stop offset="0.09" stop-color="#00783F"/>
<stop offset="0.5" stop-color="#BF9000"/>
<stop offset="1" stop-color="#06663A"/>
</linearGradient>
<linearGradient id="paint1_linear_4687_20665" x1="13.735" y1="4.168" x2="6.39301" y2="11.355" gradientUnits="userSpaceOnUse">
<stop stop-color="#BF9000"/>
<stop offset="0.07" stop-color="#BF9000" stop-opacity="0.82"/>
<stop offset="0.19" stop-color="#BF9000" stop-opacity="0.53"/>
<stop offset="0.3" stop-color="#BF9000" stop-opacity="0.3"/>
<stop offset="0.4" stop-color="#BF9000" stop-opacity="0.14"/>
<stop offset="0.49" stop-color="#BF9000" stop-opacity="0.04"/>
<stop offset="0.55" stop-color="#BF9000" stop-opacity="0"/>
</linearGradient>
</defs>
</svg>
