<svg width="17" height="20" viewBox="0 0 17 20" fill="none" xmlns="http://www.w3.org/2000/svg">
<path d="M5.99998 10C6.44201 10 6.86593 9.82441 7.17849 9.51184C7.49105 9.19928 7.66665 8.77536 7.66665 8.33333C7.66665 7.89131 7.49105 7.46738 7.17849 7.15482C6.86593 6.84226 6.44201 6.66667 5.99998 6.66667C5.55795 6.66667 5.13403 6.84226 4.82147 7.15482C4.50891 7.46738 4.33331 7.89131 4.33331 8.33333C4.33331 8.77536 4.50891 9.19928 4.82147 9.51184C5.13403 9.82441 5.55795 10 5.99998 10ZM8.49998 0.833333L16.4166 5.41667V14.5833L8.49998 19.1667L0.583313 14.5833V5.41667L8.49998 0.833333ZM2.24998 6.3775V13.6225L4.22665 14.7667L10.9541 9.83333L14.75 12.1117V6.37833L8.49998 2.75833L2.24998 6.3775Z" fill="#B7B7B7"/>
</svg>
